<svg width="22" height="22" viewBox="0 0 22 22" fill="none" xmlns="http://www.w3.org/2000/svg">
<path d="M9.5622 1.5781C10.3337 0.731302 11.6663 0.731302 12.4378 1.5781V1.5781C12.9496 2.13984 13.7417 2.35207 14.4658 2.12149V2.12149C15.5573 1.7739 16.7114 2.44019 16.9561 3.55929V3.55929C17.1185 4.30167 17.6983 4.88152 18.4407 5.04388V5.04388C19.5598 5.28863 20.2261 6.44267 19.8785 7.53422V7.53422C19.6479 8.25832 19.8602 9.0504 20.4219 9.5622V9.5622C21.2687 10.3337 21.2687 11.6663 20.4219 12.4378V12.4378C19.8602 12.9496 19.6479 13.7417 19.8785 14.4658V14.4658C20.2261 15.5573 19.5598 16.7114 18.4407 16.9561V16.9561C17.6983 17.1185 17.1185 17.6983 16.9561 18.4407V18.4407C16.7114 19.5598 15.5573 20.2261 14.4658 19.8785V19.8785C13.7417 19.6479 12.9496 19.8602 12.4378 20.4219V20.4219C11.6663 21.2687 10.3337 21.2687 9.5622 20.4219V20.4219C9.0504 19.8602 8.25832 19.6479 7.53422 19.8785V19.8785C6.44267 20.2261 5.28863 19.5598 5.04388 18.4407V18.4407C4.88152 17.6983 4.30167 17.1185 3.55929 16.9561V16.9561C2.44019 16.7114 1.7739 15.5573 2.12149 14.4658V14.4658C2.35207 13.7417 2.13984 12.9496 1.5781 12.4378V12.4378C0.731302 11.6663 0.731302 10.3337 1.5781 9.5622V9.5622C2.13984 9.0504 2.35207 8.25832 2.12149 7.53422V7.53422C1.7739 6.44267 2.44019 5.28863 3.55929 5.04388V5.04388C4.30167 4.88152 4.88152 4.30167 5.04388 3.55929V3.55929C5.28863 2.44019 6.44267 1.7739 7.53422 2.12149V2.12149C8.25832 2.35207 9.0504 2.13984 9.5622 1.5781V1.5781Z" fill="#4C9EFF"/>
<path d="M7.33333 11.6667L10 14.3333L15.6667 8.66666" stroke="white" stroke-width="3" stroke-linecap="round"/>
</svg>
