<svg width="33" height="33" viewBox="0 0 33 33" fill="none" xmlns="http://www.w3.org/2000/svg">
<path d="M14.3433 2.36715C15.5006 1.09695 17.4994 1.09695 18.6567 2.36715C19.4244 3.20976 20.6125 3.52811 21.6987 3.18224C23.336 2.66085 25.0671 3.66029 25.4342 5.33894C25.6777 6.45251 26.5475 7.32227 27.6611 7.56582C29.3397 7.93294 30.3391 9.66401 29.8178 11.3013C29.4719 12.3875 29.7902 13.5756 30.6329 14.3433C31.903 15.5006 31.903 17.4994 30.6329 18.6567C29.7902 19.4244 29.4719 20.6125 29.8178 21.6987C30.3391 23.336 29.3397 25.0671 27.6611 25.4342C26.5475 25.6777 25.6777 26.5475 25.4342 27.6611C25.0671 29.3397 23.336 30.3391 21.6987 29.8178C20.6125 29.4719 19.4244 29.7902 18.6567 30.6329C17.4994 31.903 15.5006 31.903 14.3433 30.6329C13.5756 29.7902 12.3875 29.4719 11.3013 29.8178C9.66401 30.3391 7.93294 29.3397 7.56582 27.6611C7.32227 26.5475 6.45251 25.6777 5.33894 25.4342C3.66029 25.0671 2.66085 23.336 3.18224 21.6987C3.52811 20.6125 3.20976 19.4244 2.36715 18.6567C1.09695 17.4994 1.09695 15.5006 2.36714 14.3433C3.20976 13.5756 3.52811 12.3875 3.18224 11.3013C2.66086 9.66401 3.66029 7.93294 5.33894 7.56582C6.45251 7.32227 7.32227 6.45251 7.56582 5.33894C7.93294 3.66029 9.66401 2.66085 11.3013 3.18224C12.3875 3.52811 13.5756 3.20976 14.3433 2.36715Z" fill="#1769C9"/>
<path d="M11 17.5L15 21.5L23.5 13" stroke="white" stroke-width="3" stroke-linecap="round"/>
</svg>
