<svg width="51" height="50" viewBox="0 0 51 50" fill="none" xmlns="http://www.w3.org/2000/svg">
<path d="M7.85416 45.8334C7.85416 37.7709 15.875 31.25 25.75 31.25C27.75 31.25 29.6875 31.5209 31.5 32.0209M25.75 25C28.5127 25 31.1622 23.9026 33.1157 21.9491C35.0692 19.9955 36.1667 17.346 36.1667 14.5834C36.1667 11.8207 35.0692 9.17116 33.1157 7.21766C31.1622 5.26415 28.5127 4.16669 25.75 4.16669C22.9873 4.16669 20.3378 5.26415 18.3843 7.21766C16.4308 9.17116 15.3333 11.8207 15.3333 14.5834C15.3333 17.346 16.4308 19.9955 18.3843 21.9491C20.3378 23.9026 22.9873 25 25.75 25Z" stroke="black" stroke-width="3" stroke-linecap="round" stroke-linejoin="round"/>
<path d="M41.3542 37.4584H35.1458M38.25 34.4167V40.6459M46.5833 37.5C46.5833 38.1667 46.5 38.8125 46.3333 39.4375C46.1458 40.2709 45.8125 41.0834 45.375 41.7917C44.6406 43.026 43.5973 44.0479 42.348 44.7565C41.0987 45.4652 39.6863 45.8363 38.25 45.8334C36.1988 45.8394 34.2205 45.0734 32.7083 43.6875C32.0833 43.1459 31.5417 42.5 31.125 41.7917C30.332 40.5009 29.9136 39.015 29.9167 37.5C29.9153 36.4053 30.1299 35.321 30.5482 34.3094C30.9665 33.2977 31.5803 32.3785 32.3544 31.6044C33.1285 30.8303 34.0477 30.2165 35.0594 29.7982C36.071 29.3799 37.1553 29.1653 38.25 29.1667C40.7083 29.1667 42.9375 30.2292 44.4375 31.9375C45.7708 33.4167 46.5833 35.375 46.5833 37.5Z" stroke="black" stroke-width="3" stroke-miterlimit="10" stroke-linecap="round" stroke-linejoin="round"/>
</svg>
