<svg width="50" height="50" viewBox="0 0 50 50" fill="none" xmlns="http://www.w3.org/2000/svg">
<path d="M41.6042 20.8333H8.27083V37.5C8.27083 43.75 10.3542 45.8333 16.6042 45.8333H33.2708C39.5208 45.8333 41.6042 43.75 41.6042 37.5V20.8333ZM44.7917 14.5833V16.6667C44.7917 18.9583 43.6875 20.8333 40.625 20.8333H9.375C6.1875 20.8333 5.20833 18.9583 5.20833 16.6667V14.5833C5.20833 12.2917 6.1875 10.4167 9.375 10.4167H40.625C43.6875 10.4167 44.7917 12.2917 44.7917 14.5833ZM24.25 10.4167H12.75C12.4074 10.0451 12.2225 9.55509 12.2342 9.04986C12.2458 8.54463 12.4532 8.06367 12.8125 7.70832L15.7708 4.74999C16.1452 4.37976 16.6505 4.17212 17.1771 4.17212C17.7036 4.17212 18.2089 4.37976 18.5833 4.74999L24.25 10.4167ZM37.2292 10.4167H25.7292L31.3958 4.74999C31.7702 4.37976 32.2755 4.17212 32.8021 4.17212C33.3286 4.17212 33.8339 4.37976 34.2083 4.74999L37.1667 7.70832C37.9167 8.45832 37.9375 9.64582 37.2292 10.4167Z" stroke="black" stroke-width="3" stroke-miterlimit="10" stroke-linecap="round" stroke-linejoin="round"/>
<path d="M18.625 20.8333V31.5416C18.625 33.2083 20.4583 34.1875 21.8542 33.2916L23.8125 32C24.1527 31.776 24.551 31.6566 24.9583 31.6566C25.3656 31.6566 25.764 31.776 26.1042 32L27.9583 33.25C28.2712 33.4585 28.6348 33.5783 29.0104 33.5964C29.386 33.6145 29.7594 33.5303 30.0909 33.3528C30.4224 33.1753 30.6995 32.9111 30.8926 32.5885C31.0857 32.2658 31.1877 31.8968 31.1875 31.5208V20.8333H18.625Z" stroke="black" stroke-width="3" stroke-miterlimit="10" stroke-linecap="round" stroke-linejoin="round"/>
</svg>
