<svg width="51" height="50" viewBox="0 0 51 50" fill="none" xmlns="http://www.w3.org/2000/svg">
<path d="M17.0417 4.16669V10.4167M33.7083 4.16669V10.4167M7.66667 18.9375H43.0833M46.2083 39.5834C46.2083 41.1459 45.7708 42.625 45 43.875C44.2656 45.1094 43.2223 46.1312 41.973 46.8399C40.7237 47.5486 39.3113 47.9197 37.875 47.9167C35.7708 47.9167 33.8542 47.1459 32.3958 45.8334C31.75 45.2917 31.1875 44.625 30.75 43.875C29.957 42.5842 29.5386 41.0983 29.5417 39.5834C29.5417 34.9792 33.2708 31.25 37.875 31.25C40.375 31.25 42.6042 32.3542 44.125 34.0834C45.4648 35.6026 46.2054 37.5578 46.2083 39.5834Z" stroke="black" stroke-width="3" stroke-miterlimit="10" stroke-linecap="round" stroke-linejoin="round"/>
<path d="M34.625 39.5834L36.6875 41.6459L41.125 37.5417" stroke="black" stroke-width="3" stroke-linecap="round" stroke-linejoin="round"/>
<path d="M44.125 17.7084V34.0834C42.6042 32.3542 40.375 31.25 37.875 31.25C33.2708 31.25 29.5417 34.9792 29.5417 39.5834C29.5417 41.1459 29.9792 42.625 30.75 43.875C31.1875 44.625 31.75 45.2917 32.3958 45.8334H17.0417C9.75 45.8334 6.625 41.6667 6.625 35.4167V17.7084C6.625 11.4584 9.75 7.29169 17.0417 7.29169H33.7083C41 7.29169 44.125 11.4584 44.125 17.7084Z" stroke="black" stroke-width="3" stroke-miterlimit="10" stroke-linecap="round" stroke-linejoin="round"/>
<path d="M25.3646 28.5417H25.3854M17.6542 28.5417H17.675M17.6542 34.7917H17.675" stroke="black" stroke-width="3" stroke-linecap="round" stroke-linejoin="round"/>
</svg>
